<mxfile host="app.diagrams.net" modified="2023-11-14T11:57:01.858Z" agent="Mozilla/5.0 (Macintosh; Intel Mac OS X 10_15_7) AppleWebKit/537.36 (KHTML, like Gecko) Chrome/117.0.0.0 Safari/537.36" version="22.1.0" etag="E0zGNSFy_Fx8YHhnVpVQ" type="github">
  <diagram name="Page-1" id="hHRpPkGvoNnOuGQfDhL0">
    <mxGraphModel>
      <root>
        <mxCell id="0" />
        <mxCell id="1" parent="0" />
      </root>
    </mxGraphModel>
  </diagram>
</mxfile>
